<?xml version="1.0" encoding="UTF-8" standalone="no"?>
<svg
   width="512"
   height="512"
   viewBox="0 0 135.46666 135.46667"
   version="1.1"
   id="svg1"
   xmlns="http://www.w3.org/2000/svg"
   xmlns:svg="http://www.w3.org/2000/svg">
  <defs
     id="defs1" />
  <g
     id="layer1">
    <circle
       style="fill:#4c6ef5;fill-opacity:1;stroke-width:0.264583"
       id="path1"
       cx="67.73333"
       cy="67.733337"
       r="67.73333" />
    <path
       style="fill:#ffffff;fill-opacity:1;stroke-width:0.264583"
       d="m 94.645833,45.260417 v 27.104166 c 0,14.898438 -12.076823,26.979167 -26.979166,26.979167 -14.902344,0 -26.9791669,-12.080729 -26.9791669,-26.979167 V 45.260417 c 0,-14.9023437 12.0768229,-26.9791666 26.9791669,-26.9791666 14.902343,0 26.979166,12.0768229 26.979166,26.9791666 z m -13.489583,27.104166 V 45.260417 c 0,-7.450172 -6.038411,-13.489583 -13.489583,-13.489583 -7.451173,0 -13.4895835,6.039411 -13.4895835,13.489583 v 27.104166 c 0,7.451173 6.0384105,13.489583 13.4895835,13.489583 7.451172,0 13.489583,-6.03841 13.489583,-13.489583 z"
       id="path2" />
    <path
       style="fill:#ffffff;fill-opacity:1;stroke-width:0.264583"
       d="m 53.052083,94.645833 h 29.3625 v 5.395834 H 53.052083 Z"
       id="path3" />
    <path
       style="fill:#ffffff;fill-opacity:1;stroke-width:0.264583"
       d="m 63.75,100.04167 h 8.072917 v 5.39583 H 63.75 Z"
       id="path4" />
  </g>
</svg>
